<svg width="68" height="68" viewBox="0 0 68 68" fill="none" xmlns="http://www.w3.org/2000/svg">
<path d="M36 15.46V10H67.08V15.46H36Z" fill="white"/>
<path d="M59 61H66.56V67.3H59V61Z" fill="white"/>
<path d="M50.38 67.4H42.82V43.88H34V38H59.2V43.88H50.38V67.4Z" fill="white"/>
<path d="M25.62 67.4H18.06V49.34L7.98 67.4H0V38H7.56V56.06L17.64 38H25.62V67.4Z" fill="white"/>
<path d="M21.42 0C22.12 0 23.38 0.14 25.2 0.419999V6.09H23.52C23.1 6.09 22.722 6.23 22.386 6.51C22.05 6.762 21.798 7.042 21.63 7.35L17.64 14.91L25.83 29.82H17.85L11.34 17.85H7.56V29.82H0V0.419999H7.56V11.97H11.34L15.54 3.99C16.156 2.814 16.912 1.862 17.808 1.134C18.732 0.378 19.936 0 21.42 0Z" fill="white"/>
</svg>
