<svg width="213" height="64" viewBox="0 0 213 64" fill="none" xmlns="http://www.w3.org/2000/svg">
<path d="M21.9395 0.180176C22.6395 0.180176 23.8995 0.320176 25.7195 0.600175V6.27018H24.0395C23.6195 6.27018 23.2415 6.41018 22.9055 6.69018C22.5695 6.94218 22.3175 7.22218 22.1495 7.53018L18.1595 15.0902L26.3495 30.0002H18.3695L11.8595 18.0302H8.07953V30.0002H0.519531V0.600175H8.07953V12.1502H11.8595L16.0595 4.17018C16.6755 2.99418 17.4315 2.04218 18.3275 1.31418C19.2515 0.558176 20.4555 0.180176 21.9395 0.180176Z" fill="#121723"/>
<path d="M28.8613 0.600175H46.5013C49.4413 0.600175 51.5693 1.27218 52.8853 2.61618C54.2293 3.93218 54.9013 6.06018 54.9013 9.00018V13.2002C54.9013 16.1402 54.2293 18.2822 52.8853 19.6262C51.5693 20.9422 49.4413 21.6002 46.5013 21.6002H36.4213V30.0002H28.8613V0.600175ZM47.3413 9.00018C47.3413 7.32018 46.5013 6.48018 44.8213 6.48018H36.4213V15.7202H44.8213C46.5013 15.7202 47.3413 14.8802 47.3413 13.2002V9.00018Z" fill="#121723"/>
<path d="M77.5797 8.58018C77.5797 6.90018 76.7397 6.06017 75.0597 6.06017H67.9197C66.2397 6.06017 65.3997 6.90018 65.3997 8.58018V22.0202C65.3997 23.7002 66.2397 24.5402 67.9197 24.5402H75.0597C76.7397 24.5402 77.5797 23.7002 77.5797 22.0202V8.58018ZM85.1397 22.0202C85.1397 24.9602 84.4677 27.1022 83.1237 28.4462C81.8077 29.7622 79.6797 30.4202 76.7397 30.4202H66.2397C63.2997 30.4202 61.1577 29.7622 59.8137 28.4462C58.4977 27.1022 57.8397 24.9602 57.8397 22.0202V8.58018C57.8397 5.64018 58.4977 3.51218 59.8137 2.19617C61.1577 0.852175 63.2997 0.180176 66.2397 0.180176H76.7397C79.6797 0.180176 81.8077 0.852175 83.1237 2.19617C84.4677 3.51218 85.1397 5.64018 85.1397 8.58018V22.0202Z" fill="#121723"/>
<path d="M112.039 29.5802C105.795 30.1402 100.615 30.4202 96.4994 30.4202C93.7554 30.4202 91.7394 29.7762 90.4514 28.4882C89.1634 27.2002 88.5194 25.1842 88.5194 22.4402V9.00018C88.5194 6.06018 89.1774 3.93218 90.4934 2.61618C91.8374 1.27218 93.9794 0.600175 96.9194 0.600175H112.039V6.48018H98.5994C96.9194 6.48018 96.0794 7.32018 96.0794 9.00018V22.4402C96.0794 23.0842 96.2614 23.6022 96.6254 23.9942C97.0174 24.3582 97.5074 24.5402 98.0954 24.5402C98.6834 24.5402 99.3274 24.5402 100.027 24.5402C100.727 24.5122 101.455 24.4842 102.211 24.4562C102.967 24.4282 103.723 24.4002 104.479 24.3722C105.263 24.3442 106.257 24.2882 107.461 24.2042C108.693 24.1202 110.219 24.0222 112.039 23.9102V29.5802Z" fill="#121723"/>
<path d="M138.084 29.5802C131.84 30.1402 126.66 30.4202 122.544 30.4202C119.8 30.4202 117.784 29.7762 116.496 28.4882C115.208 27.2002 114.564 25.1842 114.564 22.4402V9.00018C114.564 6.06018 115.222 3.93218 116.538 2.61618C117.882 1.27218 120.024 0.600175 122.964 0.600175H138.084V6.48018H124.644C122.964 6.48018 122.124 7.32018 122.124 9.00018V22.4402C122.124 23.0842 122.306 23.6022 122.67 23.9942C123.062 24.3582 123.552 24.5402 124.14 24.5402C124.728 24.5402 125.372 24.5402 126.072 24.5402C126.772 24.5122 127.5 24.4842 128.256 24.4562C129.012 24.4282 129.768 24.4002 130.524 24.3722C131.308 24.3442 132.302 24.2882 133.506 24.2042C134.738 24.1202 136.264 24.0222 138.084 23.9102V29.5802Z" fill="#121723"/>
<path d="M149.009 10.6802H158.669C161.609 10.6802 163.737 11.3522 165.053 12.6962C166.397 14.0122 167.069 16.1402 167.069 19.0802V21.6002C167.069 24.5402 166.397 26.6822 165.053 28.0262C163.737 29.3422 161.609 30.0002 158.669 30.0002H141.449V0.600175H149.009V10.6802ZM177.989 30.0002H170.429V0.600175H177.989V30.0002ZM159.509 19.0802C159.509 17.4002 158.669 16.5602 156.989 16.5602H149.009V24.1202H156.989C158.669 24.1202 159.509 23.2802 159.509 21.6002V19.0802Z" fill="#121723"/>
<path d="M181.779 18.0302V12.5702H212.859V18.0302H181.779Z" fill="#121723"/>
<path d="M26.1395 63.0002H18.5795V44.9402L8.49953 63.0002H0.519531V33.6002H8.07953V51.6602L18.1595 33.6002H26.1395V63.0002Z" fill="#121723"/>
<path d="M58.071 63.0002H50.511V39.4802H41.691V33.6002H66.891V39.4802H58.071V63.0002Z" fill="#121723"/>
<path d="M86.6359 41.5802C86.6359 39.9002 85.7959 39.0602 84.1159 39.0602H76.9759C75.2959 39.0602 74.4559 39.9002 74.4559 41.5802V55.0202C74.4559 56.7002 75.2959 57.5402 76.9759 57.5402H84.1159C85.7959 57.5402 86.6359 56.7002 86.6359 55.0202V41.5802ZM94.1959 55.0202C94.1959 57.9602 93.5239 60.1022 92.1799 61.4462C90.8639 62.7622 88.7359 63.4202 85.7959 63.4202H75.2959C72.3559 63.4202 70.2139 62.7622 68.8699 61.4462C67.5539 60.1022 66.8959 57.9602 66.8959 55.0202V41.5802C66.8959 38.6402 67.5539 36.5122 68.8699 35.1962C70.2139 33.8522 72.3559 33.1802 75.2959 33.1802H85.7959C88.7359 33.1802 90.8639 33.8522 92.1799 35.1962C93.5239 36.5122 94.1959 38.6402 94.1959 41.5802V55.0202Z" fill="#121723"/>
<path d="M113.326 53.3402C109.966 53.6202 106.788 53.7602 103.792 53.7602C100.824 53.7602 98.6956 53.1162 97.4076 51.8282C96.1196 50.5402 95.4756 48.5242 95.4756 45.7802V33.6002H103.036V45.7802C103.036 46.4242 103.218 46.9422 103.582 47.3342C103.974 47.6982 104.492 47.8802 105.136 47.8802C107.432 47.8802 110.162 47.7402 113.326 47.4602V33.6002H120.886V63.0002H113.326V53.3402Z" fill="#121723"/>
<path d="M147.349 33.1802C148.049 33.1802 149.309 33.3202 151.129 33.6002V39.2702H149.449C149.029 39.2702 148.651 39.4102 148.315 39.6902C147.979 39.9422 147.727 40.2222 147.559 40.5302L143.569 48.0902L151.759 63.0002H143.779L137.269 51.0302H133.489V63.0002H125.929V33.6002H133.489V45.1502H137.269L141.469 37.1702C142.085 35.9942 142.841 35.0422 143.737 34.3142C144.661 33.5582 145.865 33.1802 147.349 33.1802Z" fill="#121723"/>
<path d="M159.521 63.0002H151.331L162.461 33.6002H170.861L181.991 63.0002H173.801L171.911 57.7502H161.411L159.521 63.0002ZM163.301 52.2902H170.021L166.661 42.4202L163.301 52.2902Z" fill="#121723"/>
<path d="M182.829 56.7002H190.389V63.0002H182.829V56.7002Z" fill="#121723"/>
</svg>
