<svg width="301" height="23" viewBox="0 0 301 23" fill="none" xmlns="http://www.w3.org/2000/svg">
<path d="M16.6704 -0.00976562C17.187 -0.00976562 18.117 0.0935676 19.4604 0.300234V4.48524H18.2204C17.9104 4.48524 17.6314 4.58857 17.3834 4.79524C17.1354 4.98124 16.9494 5.1879 16.8254 5.41523L13.8804 10.9952L19.9254 22.0002H14.0354L9.23035 13.1652H6.44035V22.0002H0.860352V0.300234H6.44035V8.82524H9.23035L12.3304 2.93524C12.785 2.06724 13.343 1.36457 14.0044 0.827235C14.6864 0.269234 15.575 -0.00976562 16.6704 -0.00976562Z" fill="white"/>
<path d="M21.7793 0.300234H34.7993C36.9693 0.300234 38.54 0.796234 39.5113 1.78824C40.5033 2.75957 40.9993 4.33024 40.9993 6.50024V9.60023C40.9993 11.7702 40.5033 13.3512 39.5113 14.3432C38.54 15.3146 36.9693 15.8002 34.7993 15.8002H27.3593V22.0002H21.7793V0.300234ZM35.4193 6.50024C35.4193 5.26024 34.7993 4.64024 33.5593 4.64024H27.3593V11.4602H33.5593C34.7993 11.4602 35.4193 10.8402 35.4193 9.60023V6.50024Z" fill="white"/>
<path d="M57.7381 6.19023C57.7381 4.95023 57.1181 4.33023 55.8781 4.33023H50.6081C49.3681 4.33023 48.7481 4.95023 48.7481 6.19023V16.1102C48.7481 17.3502 49.3681 17.9702 50.6081 17.9702H55.8781C57.1181 17.9702 57.7381 17.3502 57.7381 16.1102V6.19023ZM63.3181 16.1102C63.3181 18.2802 62.8221 19.8612 61.8301 20.8532C60.8588 21.8246 59.2881 22.3102 57.1181 22.3102H49.3681C47.1981 22.3102 45.6171 21.8246 44.6251 20.8532C43.6538 19.8612 43.1681 18.2802 43.1681 16.1102V6.19023C43.1681 4.02024 43.6538 2.44957 44.6251 1.47823C45.6171 0.486234 47.1981 -0.00976562 49.3681 -0.00976562H57.1181C59.2881 -0.00976562 60.8588 0.486234 61.8301 1.47823C62.8221 2.44957 63.3181 4.02024 63.3181 6.19023V16.1102Z" fill="white"/>
<path d="M83.1726 21.6902C78.5639 22.1036 74.7406 22.3102 71.7026 22.3102C69.6773 22.3102 68.1893 21.8349 67.2386 20.8842C66.288 19.9336 65.8126 18.4456 65.8126 16.4202V6.50024C65.8126 4.33024 66.2983 2.75957 67.2696 1.78824C68.2616 0.796234 69.8426 0.300234 72.0126 0.300234H83.1726V4.64024H73.2526C72.0126 4.64024 71.3926 5.26024 71.3926 6.50024V16.4202C71.3926 16.8956 71.5269 17.2779 71.7956 17.5672C72.0849 17.8359 72.4466 17.9702 72.8806 17.9702C73.3146 17.9702 73.79 17.9702 74.3066 17.9702C74.8233 17.9496 75.3606 17.9289 75.9186 17.9082C76.4766 17.8876 77.0346 17.8669 77.5926 17.8462C78.1713 17.8256 78.905 17.7842 79.7936 17.7222C80.703 17.6602 81.8293 17.5879 83.1726 17.5052V21.6902Z" fill="white"/>
<path d="M102.396 21.6902C97.7876 22.1036 93.9642 22.3102 90.9262 22.3102C88.9009 22.3102 87.4129 21.8349 86.4622 20.8842C85.5116 19.9336 85.0362 18.4456 85.0362 16.4202V6.50024C85.0362 4.33024 85.5219 2.75957 86.4932 1.78824C87.4852 0.796234 89.0663 0.300234 91.2363 0.300234H102.396V4.64024H92.4762C91.2362 4.64024 90.6162 5.26024 90.6162 6.50024V16.4202C90.6162 16.8956 90.7506 17.2779 91.0192 17.5672C91.3086 17.8359 91.6702 17.9702 92.1042 17.9702C92.5382 17.9702 93.0136 17.9702 93.5303 17.9702C94.0469 17.9496 94.5842 17.9289 95.1423 17.9082C95.7002 17.8876 96.2583 17.8669 96.8163 17.8462C97.3949 17.8256 98.1286 17.7842 99.0173 17.7222C99.9266 17.6602 101.053 17.5879 102.396 17.5052V21.6902Z" fill="white"/>
<path d="M110.46 7.74024H117.59C119.76 7.74024 121.331 8.23623 122.302 9.22823C123.294 10.1996 123.79 11.7702 123.79 13.9402V15.8002C123.79 17.9702 123.294 19.5512 122.302 20.5432C121.331 21.5146 119.76 22.0002 117.59 22.0002H104.88V0.300234H110.46V7.74024ZM131.85 22.0002H126.27V0.300234H131.85V22.0002ZM118.21 13.9402C118.21 12.7002 117.59 12.0802 116.35 12.0802H110.46V17.6602H116.35C117.59 17.6602 118.21 17.0402 118.21 15.8002V13.9402Z" fill="white"/>
<path d="M134.647 13.1652V9.13523H157.587V13.1652H134.647Z" fill="white"/>
<path d="M179.281 22.0002H173.701V8.67024L166.261 22.0002H160.371V0.300234H165.951V13.6302L173.391 0.300234H179.281V22.0002Z" fill="white"/>
<path d="M202.85 22.0002H197.27V4.64024H190.76V0.300234H209.36V4.64024H202.85V22.0002Z" fill="white"/>
<path d="M223.933 6.19023C223.933 4.95023 223.313 4.33023 222.073 4.33023H216.803C215.563 4.33023 214.943 4.95023 214.943 6.19023V16.1102C214.943 17.3502 215.563 17.9702 216.803 17.9702H222.073C223.313 17.9702 223.933 17.3502 223.933 16.1102V6.19023ZM229.513 16.1102C229.513 18.2802 229.017 19.8612 228.025 20.8532C227.054 21.8246 225.483 22.3102 223.313 22.3102H215.563C213.393 22.3102 211.812 21.8246 210.82 20.8532C209.849 19.8612 209.363 18.2802 209.363 16.1102V6.19023C209.363 4.02024 209.849 2.44957 210.82 1.47823C211.812 0.486234 213.393 -0.00976562 215.563 -0.00976562H223.313C225.483 -0.00976562 227.054 0.486234 228.025 1.47823C229.017 2.44957 229.513 4.02024 229.513 6.19023V16.1102Z" fill="white"/>
<path d="M243.633 14.8702C241.153 15.0769 238.807 15.1802 236.596 15.1802C234.405 15.1802 232.834 14.7049 231.884 13.7542C230.933 12.8036 230.458 11.3156 230.458 9.29023V0.300234H236.038V9.29023C236.038 9.76557 236.172 10.1479 236.441 10.4372C236.73 10.7059 237.112 10.8402 237.588 10.8402C239.282 10.8402 241.297 10.7369 243.633 10.5302V0.300234H249.213V22.0002H243.633V14.8702Z" fill="white"/>
<path d="M268.745 -0.00976562C269.262 -0.00976562 270.192 0.0935676 271.535 0.300234V4.48524H270.295C269.985 4.48524 269.706 4.58857 269.458 4.79524C269.21 4.98124 269.024 5.1879 268.9 5.41523L265.955 10.9952L272 22.0002H266.11L261.305 13.1652H258.515V22.0002H252.935V0.300234H258.515V8.82524H261.305L264.405 2.93524C264.86 2.06724 265.418 1.36457 266.079 0.827235C266.761 0.269234 267.65 -0.00976562 268.745 -0.00976562Z" fill="white"/>
<path d="M277.729 22.0002H271.684L279.899 0.300234H286.099L294.314 22.0002H288.269L286.874 18.1252H279.124L277.729 22.0002ZM280.519 14.0952H285.479L282.999 6.81024L280.519 14.0952Z" fill="white"/>
<path d="M294.933 17.3502H300.513V22.0002H294.933V17.3502Z" fill="white"/>
</svg>
